# xmcd CD Database Entry
#
# Track frame offsets:
# 150
# 6783
# 11888
# 17118
# 29790
# 37055
# 43758
# 52895
# 59210
# 68503
#
# Disc length: 1060 seconds
#
# Revision: 2
# Processed by: cddbd v1.4PL0 Copyright (c) Steve Scherf et al.
# Submitted via: tcd 2.0b
#
DISCID=8a04220a
DTITLE=Crisis of Faith - Land of the Free
DYEAR=1900
DGENRE=
TTITLE0=Consume
TTITLE1=Doctor of Death
TTITLE2=Struggle For Existance
TTITLE3=Incest
TTITLE4=Freedom of Opression
TTITLE5=Public Assistance
TTITLE6=Hardline
TTITLE7=Land of the Free
TTITLE8=Close Your Mouth
TTITLE9=Ecological Business
EXTD=
EXTT0=
EXTT1=
EXTT2=
EXTT3=
EXTT4=
EXTT5=
EXTT6=
EXTT7=
EXTT8=
EXTT9=
PLAYORDER=
